HIERARCHY
ROOT Hips
{
     OFFSET 6.81106 96.18610 -28.83200
     CHANNELS 6 Xposition Yposition Zposition Zrotation Xrotation Yrotation
     JOINT Spine
     {
          OFFSET -0.00000 11.89050 -0.00000
          CHANNELS 3 Zrotation Xrotation Yrotation
          JOINT Spine1
          {
               OFFSET -0.00000 25.65740 0.12766
               CHANNELS 3 Zrotation Xrotation Yrotation
               JOINT HEad
               {
                    OFFSET -0.00000 8.73416 0.01134
                    CHANNELS 3 Zrotation Xrotation Yrotation
                    End Site
                    {
                         OFFSET -0.29000 12.77420 2.51395
                    }
               }
               JOINT LeftShoulder1
               {
                    OFFSET 8.99000 -0.36225 -0.22000
                    CHANNELS 3 Zrotation Xrotation Yrotation
                    JOINT LeftArm
                    {
                         OFFSET 10.28270 -0.00338 0.32212
                         CHANNELS 3 Zrotation Xrotation Yrotation
                         JOINT LeftForeArm
                         {
                              OFFSET 32.76690 0.09914 -1.42434
                              CHANNELS 3 Zrotation Xrotation Yrotation
                              JOINT LeftHand
                              {
                                   OFFSET 27.56430 0.08536 1.02216
                                   CHANNELS 3 Zrotation Xrotation Yrotation
                                   End Site
                                   {
                                        OFFSET 16.74430 -0.60000 1.50291
                                   }
                              }
                         }
                    }
               }
               JOINT RightShoulder
               {
                    OFFSET -8.99000 -0.36225 -0.22000
                    CHANNELS 3 Zrotation Xrotation Yrotation
                    JOINT RightArm
                    {
                         OFFSET -10.28270 -0.00338 0.32212
                         CHANNELS 3 Zrotation Xrotation Yrotation
                         JOINT RightForeArm
                         {
                              OFFSET -32.89710 0.09914 -1.42434
                              CHANNELS 3 Zrotation Xrotation Yrotation
                              JOINT RightHand
                              {
                                   OFFSET -27.49210 0.08536 1.02216
                                   CHANNELS 3 Zrotation Xrotation Yrotation
                                   End Site
                                   {
                                        OFFSET -16.63120 -0.60000 1.50291
                                   }
                              }
                         }
                    }
               }
          }
     }
     JOINT LeftUpLeg
     {
          OFFSET 8.94580 -8.66707 0.10165
          CHANNELS 3 Zrotation Xrotation Yrotation
          JOINT LeftLeg
          {
               OFFSET -0.00000 -44.42270 1.37270
               CHANNELS 3 Zrotation Xrotation Yrotation
               JOINT LeftFoot
               {
                    OFFSET -0.25355 -42.09240 -1.46059
                    CHANNELS 3 Zrotation Xrotation Yrotation
                    JOINT LeftToes
                    {
                         OFFSET -0.04000 -4.41509 8.49910
                         CHANNELS 3 Zrotation Xrotation Yrotation
                         End Site
                         {
                              OFFSET 0.08000 -0.04745 9.77979
                         }
                    }
               }
          }
     }
     JOINT RightUpLeg
     {
          OFFSET -8.94580 -8.66707 0.10165
          CHANNELS 3 Zrotation Xrotation Yrotation
          JOINT RightLeg
          {
               OFFSET 0.00000 -44.42270 1.37270
               CHANNELS 3 Zrotation Xrotation Yrotation
               JOINT RightFoot
               {
                    OFFSET 0.25355 -42.09240 -1.46059
                    CHANNELS 3 Zrotation Xrotation Yrotation
                    JOINT RightToes
                    {
                         OFFSET 0.04000 -4.41509 8.49910
                         CHANNELS 3 Zrotation Xrotation Yrotation
                         End Site
                         {
                              OFFSET -0.08000 -0.13745 9.77979
                         }
                    }
               }
          }
     }
}
MOTION
Frames: 8
Frame Time: 0.01667
6.81106 96.18610 -28.83200 2.22573 -17.34520 17.93840 -2.11104 13.21330 1.34695 -4.76072 26.35920 3.25751 3.65774 -11.63780 6.20287 -0.00000 0.00000 -0.00000 -92.38540 -44.40180 -73.85220 -26.49450 33.02350 -79.23120 10.25440 9.23563 -3.70887 13.35130 1.41575 6.10464 76.16310 -2.74870 68.83790 16.61900 20.17700 76.80260 16.88940 12.56280 13.05600 17.62100 3.10127 -13.93810 -18.20750 1.28391 47.35010 -8.25143 8.78104 1.11285 8.97931 -10.14110 -60.90880 -27.77670 17.78310 16.18630 41.20110 2.01432 -36.56400 -20.36960 4.01579 2.00192 0.04620 0.00053 0.66264 
7.48461 96.33810 -28.86370 2.10071 -17.57640 17.98170 -2.08900 13.44560 1.27437 -4.70006 26.83240 3.21799 3.50543 -11.89960 6.11951 -0.00000 0.00000 -0.00000 -91.86250 -43.89170 -73.29130 -26.24710 32.40870 -79.29900 9.94879 9.27078 -3.53547 13.90060 1.45842 6.12700 75.32100 -3.01551 68.25850 17.42570 19.88020 76.31980 16.73210 12.57900 13.31820 17.61720 3.83144 -12.86840 -18.28290 0.56087 47.13430 -7.17658 9.76351 1.01379 8.73928 -11.13270 -61.66120 -28.19040 16.73090 15.74150 41.88830 3.98849 -36.70980 -20.47170 5.98374 2.37812 0.04620 0.00053 0.66264 
8.14816 96.47310 -28.87030 1.93700 -17.74260 17.88510 -2.08101 13.64310 1.24374 -4.61920 27.22940 3.23523 3.24976 -12.05340 6.10188 -0.00000 0.00000 -0.00000 -91.83640 -43.76910 -72.99920 -26.35470 32.36450 -79.35600 9.85241 9.27934 -3.51026 14.30340 1.49842 6.19336 74.69720 -3.35579 67.73260 18.27050 19.72100 76.00000 16.76350 12.59640 13.39970 17.57110 4.38052 -12.26660 -18.39160 0.08030 47.16630 -6.49047 10.16070 0.92952 8.62660 -11.66890 -62.29270 -28.57630 15.37480 15.17730 42.59990 6.31228 -36.81840 -20.54610 7.77356 2.72063 0.04620 0.00053 0.66264 
8.80158 96.60170 -28.85000 1.65884 -17.86480 17.69240 -1.90717 13.78320 1.20500 -4.53109 27.52840 3.28567 2.97425 -12.10020 6.17742 -0.00000 0.00000 -0.00000 -92.05420 -43.91570 -72.85330 -26.63080 32.68110 -79.43710 9.91483 9.27007 -3.57344 14.56000 1.53659 6.30742 74.37630 -3.81058 67.29370 19.10120 19.75090 75.91460 16.98630 12.61380 13.28830 17.59510 4.71786 -12.12640 -18.54310 -0.15679 47.39940 -6.19270 10.08910 0.87987 8.63303 -11.77460 -62.69830 -28.86690 13.96150 14.56860 43.29160 8.54872 -36.89540 -20.67680 9.27494 3.02014 0.04620 0.00053 0.66264 
9.41947 96.72230 -28.80890 1.27106 -17.94550 17.47240 -1.55878 13.86690 1.14339 -4.37529 27.72530 3.33257 2.74242 -12.05910 6.35446 -0.00000 0.00000 -0.00000 -92.28600 -44.19050 -72.75860 -26.88280 33.12830 -79.56530 10.07010 9.25233 -3.66117 14.69050 1.57164 6.45399 74.43700 -4.39365 66.99710 19.85570 19.98880 76.09750 17.37180 12.62780 13.00070 17.71280 4.82633 -12.35560 -18.72260 -0.15412 47.75240 -6.25186 9.69790 0.87019 8.74440 -11.49500 -62.83710 -29.03670 12.62570 13.96340 43.92160 10.50160 -37.01600 -20.84650 10.28770 3.23735 0.04620 0.00053 0.66264 
9.97240 96.84430 -28.75330 0.84935 -17.98590 17.31250 -1.15842 13.91310 1.06441 -4.18651 27.84970 3.33509 2.58302 -11.96270 6.61507 -0.00000 0.00000 -0.00000 -92.37280 -44.47110 -72.65710 -26.98380 33.51350 -79.73800 10.25880 9.23375 -3.72790 14.71310 1.59902 6.60134 74.96900 -5.07399 66.91940 20.50700 20.40360 76.51710 17.85520 12.63460 12.59110 17.87960 4.80417 -12.82930 -18.89390 -0.08647 48.10860 -6.54266 9.17856 0.88788 8.94077 -10.88530 -62.71140 -29.12820 11.49890 13.43570 44.44490 12.00710 -37.24060 -21.00720 10.67560 3.33719 0.04620 0.00053 0.66264 
10.44550 96.95770 -28.68720 0.42850 -18.00360 17.27360 -0.74128 13.93840 0.95937 -3.96526 27.93430 3.25680 2.49463 -11.85280 6.92503 -0.00000 0.00000 -0.00000 -92.24790 -44.68480 -72.52780 -26.91350 33.71690 -79.91710 10.43950 9.21853 -3.75881 14.62100 1.61276 6.72048 76.07780 -5.77037 67.13880 21.09870 20.91540 77.06890 18.31070 12.63000 12.15750 18.04880 4.64414 -13.36870 -19.00470 0.13258 48.32400 -7.01464 8.59960 0.92548 9.19308 -10.01940 -62.34590 -29.15270 10.66010 13.02980 44.83440 13.01130 -37.58100 -21.09410 10.40120 3.29907 0.04620 0.00053 0.66264 
10.82840 97.06520 -28.61370 0.05411 -18.00760 17.38220 -0.37509 13.96030 0.82986 -3.71939 28.00900 3.07572 2.46085 -11.77590 7.25181 -0.00000 0.00000 -0.00000 -91.92650 -44.82020 -72.37510 -26.74060 33.69970 -80.04310 10.59210 9.20714 -3.76677 14.37940 1.60884 6.80559 77.85290 -6.35436 67.70830 21.73590 21.42490 77.60310 18.51690 12.60580 11.83660 18.16540 4.41969 -13.79120 -18.99830 0.44701 48.25720 -7.54557 8.04454 0.96785 9.46417 -8.99516 -61.77730 -29.14470 10.15400 12.79150 45.06230 13.47760 -37.98490 -21.07410 9.59862 3.14255 0.04620 0.00053 0.66264 
